# xmcd CD database file
#
# Track frame offsets:
#	150
#	23538
#	25188
#	41323
#	73368
#	103143
#	123243
#	144002
#	167908
#	189239
#	200526
#	215826
#	233251
#	245851
#	260926
#
# Disc length: 3760 seconds
#
# Revision: 0
# Processed by: cddbd v1.5.2PL0 Copyright (c) Steve Scherf et al.
# Submitted via: CDex 1.70beta2
#
DISCID=d50eae0f
DTITLE=Sue Terry - Pink Slimy Worm
DYEAR=2003
DGENRE=Jazz
TTITLE0=Theme and Trajectory X
TTITLE1=Red-haired Kid
TTITLE2=Fluorescent Camouglage
TTITLE3=Waterwheel
TTITLE4=The Troubadors
TTITLE5=Desert Moon
TTITLE6=The Toothless Soothsayer
TTITLE7=Parable of the Vineyards
TTITLE8=Slow Journey
TTITLE9=Theme and Trajectory Z
TTITLE10=Lost Melody
TTITLE11=Theme and Trajectory Y
TTITLE12=PSW
TTITLE13=Wedding Song
TTITLE14=For Arden
EXTD=YEAR: 2003
EXTT0=
EXTT1=
EXTT2=
EXTT3=
EXTT4=
EXTT5=
EXTT6=
EXTT7=
EXTT8=
EXTT9=
EXTT10=
EXTT11=
EXTT12=
EXTT13=
EXTT14=
PLAYORDER=
